<?xml version="1.0" encoding="UTF-8" standalone="no"?>
<!DOCTYPE svg PUBLIC "-//W3C//DTD SVG 1.1//EN"
 "http://www.w3.org/Graphics/SVG/1.1/DTD/svg11.dtd">


<!-- Generated by graphviz version 2.44.1 (20200629.0846)
 -->
<!-- Pages: 1 -->
<svg width="1057pt" height="764pt"
 viewBox="0.00 0.00 1057.14 764.00" xmlns="http://www.w3.org/2000/svg" xmlns:xlink="http://www.w3.org/1999/xlink">
<g id="graph0" class="graph" transform="scale(1 1) rotate(0) translate(4 760)">
<polygon fill="white" stroke="transparent" points="-4,4 -4,-760 1053.14,-760 1053.14,4 -4,4"/>
<!-- node1 -->
<g id="node1" class="node">
<title>node1</title>
<ellipse fill="none" stroke="black" cx="443.54" cy="-738" rx="44.39" ry="18"/>
<text text-anchor="middle" x="443.54" y="-734.3" font-family="Times,serif" font-size="14.00">file_input</text>
</g>
<!-- node2 -->
<g id="node2" class="node">
<title>node2</title>
<ellipse fill="none" stroke="black" cx="302.54" cy="-666" rx="27" ry="18"/>
<text text-anchor="middle" x="302.54" y="-662.3" font-family="Times,serif" font-size="14.00">stmt</text>
</g>
<!-- node1&#45;&#45;node2 -->
<g id="edge1" class="edge">
<title>node1&#45;&#45;node2</title>
<path fill="none" stroke="black" d="M416.69,-723.67C389.68,-710.26 348.59,-689.86 323.78,-677.54"/>
</g>
<!-- node13 -->
<g id="node3" class="node">
<title>node13</title>
<ellipse fill="none" stroke="black" cx="391.54" cy="-666" rx="27" ry="18"/>
<text text-anchor="middle" x="391.54" y="-662.3" font-family="Times,serif" font-size="14.00">stmt</text>
</g>
<!-- node1&#45;&#45;node13 -->
<g id="edge2" class="edge">
<title>node1&#45;&#45;node13</title>
<path fill="none" stroke="black" d="M431.22,-720.41C422.69,-708.93 411.42,-693.75 403.07,-682.51"/>
</g>
<!-- node36 -->
<g id="node4" class="node">
<title>node36</title>
<ellipse fill="none" stroke="black" cx="496.54" cy="-666" rx="59.59" ry="18"/>
<text text-anchor="middle" x="496.54" y="-662.3" font-family="Times,serif" font-size="14.00">NEWLINE(&#39;&#39;)</text>
</g>
<!-- node1&#45;&#45;node36 -->
<g id="edge3" class="edge">
<title>node1&#45;&#45;node36</title>
<path fill="none" stroke="black" d="M456.1,-720.41C464.43,-709.41 475.32,-695.03 483.71,-683.96"/>
</g>
<!-- node37 -->
<g id="node5" class="node">
<title>node37</title>
<ellipse fill="none" stroke="black" cx="649.54" cy="-666" rx="75.29" ry="18"/>
<text text-anchor="middle" x="649.54" y="-662.3" font-family="Times,serif" font-size="14.00">ENDMARKER(&#39;&#39;)</text>
</g>
<!-- node1&#45;&#45;node37 -->
<g id="edge4" class="edge">
<title>node1&#45;&#45;node37</title>
<path fill="none" stroke="black" d="M476.64,-725.75C512.35,-713.62 569.29,-694.27 607.99,-681.12"/>
</g>
<!-- node3 -->
<g id="node6" class="node">
<title>node3</title>
<ellipse fill="none" stroke="black" cx="268.54" cy="-594" rx="54.69" ry="18"/>
<text text-anchor="middle" x="268.54" y="-590.3" font-family="Times,serif" font-size="14.00">simple_stmt</text>
</g>
<!-- node2&#45;&#45;node3 -->
<g id="edge5" class="edge">
<title>node2&#45;&#45;node3</title>
<path fill="none" stroke="black" d="M294.66,-648.76C289.32,-637.78 282.29,-623.29 276.86,-612.12"/>
</g>
<!-- node14 -->
<g id="node16" class="node">
<title>node14</title>
<ellipse fill="none" stroke="black" cx="434.54" cy="-594" rx="68.49" ry="18"/>
<text text-anchor="middle" x="434.54" y="-590.3" font-family="Times,serif" font-size="14.00">compound_stmt</text>
</g>
<!-- node13&#45;&#45;node14 -->
<g id="edge15" class="edge">
<title>node13&#45;&#45;node14</title>
<path fill="none" stroke="black" d="M401.3,-649.12C408.14,-637.98 417.27,-623.13 424.23,-611.8"/>
</g>
<!-- node4 -->
<g id="node7" class="node">
<title>node4</title>
<ellipse fill="none" stroke="black" cx="127.54" cy="-522" rx="50.09" ry="18"/>
<text text-anchor="middle" x="127.54" y="-518.3" font-family="Times,serif" font-size="14.00">small_stmt</text>
</g>
<!-- node3&#45;&#45;node4 -->
<g id="edge6" class="edge">
<title>node3&#45;&#45;node4</title>
<path fill="none" stroke="black" d="M239.67,-578.67C215.18,-566.51 180.24,-549.16 155.9,-537.08"/>
</g>
<!-- node12 -->
<g id="node8" class="node">
<title>node12</title>
<ellipse fill="none" stroke="black" cx="268.54" cy="-522" rx="59.59" ry="18"/>
<text text-anchor="middle" x="268.54" y="-518.3" font-family="Times,serif" font-size="14.00">NEWLINE(&#39;&#39;)</text>
</g>
<!-- node3&#45;&#45;node12 -->
<g id="edge7" class="edge">
<title>node3&#45;&#45;node12</title>
<path fill="none" stroke="black" d="M268.54,-575.7C268.54,-564.85 268.54,-550.92 268.54,-540.1"/>
</g>
<!-- node5 -->
<g id="node9" class="node">
<title>node5</title>
<ellipse fill="none" stroke="black" cx="121.54" cy="-450" rx="54.69" ry="18"/>
<text text-anchor="middle" x="121.54" y="-446.3" font-family="Times,serif" font-size="14.00">import_stmt</text>
</g>
<!-- node4&#45;&#45;node5 -->
<g id="edge8" class="edge">
<title>node4&#45;&#45;node5</title>
<path fill="none" stroke="black" d="M126.06,-503.7C125.13,-492.85 123.94,-478.92 123.01,-468.1"/>
</g>
<!-- node6 -->
<g id="node10" class="node">
<title>node6</title>
<ellipse fill="none" stroke="black" cx="121.54" cy="-378" rx="58.49" ry="18"/>
<text text-anchor="middle" x="121.54" y="-374.3" font-family="Times,serif" font-size="14.00">import_name</text>
</g>
<!-- node5&#45;&#45;node6 -->
<g id="edge9" class="edge">
<title>node5&#45;&#45;node6</title>
<path fill="none" stroke="black" d="M121.54,-431.7C121.54,-420.85 121.54,-406.92 121.54,-396.1"/>
</g>
<!-- node7 -->
<g id="node11" class="node">
<title>node7</title>
<ellipse fill="none" stroke="black" cx="69.54" cy="-306" rx="69.59" ry="18"/>
<text text-anchor="middle" x="69.54" y="-302.3" font-family="Times,serif" font-size="14.00">NAME(&#39;import&#39;)</text>
</g>
<!-- node6&#45;&#45;node7 -->
<g id="edge10" class="edge">
<title>node6&#45;&#45;node7</title>
<path fill="none" stroke="black" d="M108.96,-360.05C100.78,-349.05 90.17,-334.76 82.02,-323.79"/>
</g>
<!-- node8 -->
<g id="node12" class="node">
<title>node8</title>
<ellipse fill="none" stroke="black" cx="228.54" cy="-306" rx="71.49" ry="18"/>
<text text-anchor="middle" x="228.54" y="-302.3" font-family="Times,serif" font-size="14.00">dotted_as_names</text>
</g>
<!-- node6&#45;&#45;node8 -->
<g id="edge11" class="edge">
<title>node6&#45;&#45;node8</title>
<path fill="none" stroke="black" d="M145.29,-361.46C162.78,-350.03 186.48,-334.52 204.12,-322.98"/>
</g>
<!-- node9 -->
<g id="node13" class="node">
<title>node9</title>
<ellipse fill="none" stroke="black" cx="228.54" cy="-234" rx="68.49" ry="18"/>
<text text-anchor="middle" x="228.54" y="-230.3" font-family="Times,serif" font-size="14.00">dotted_as_name</text>
</g>
<!-- node8&#45;&#45;node9 -->
<g id="edge12" class="edge">
<title>node8&#45;&#45;node9</title>
<path fill="none" stroke="black" d="M228.54,-287.7C228.54,-276.85 228.54,-262.92 228.54,-252.1"/>
</g>
<!-- node10 -->
<g id="node14" class="node">
<title>node10</title>
<ellipse fill="none" stroke="black" cx="228.54" cy="-162" rx="56.59" ry="18"/>
<text text-anchor="middle" x="228.54" y="-158.3" font-family="Times,serif" font-size="14.00">dotted_name</text>
</g>
<!-- node9&#45;&#45;node10 -->
<g id="edge13" class="edge">
<title>node9&#45;&#45;node10</title>
<path fill="none" stroke="black" d="M228.54,-215.7C228.54,-204.85 228.54,-190.92 228.54,-180.1"/>
</g>
<!-- node11 -->
<g id="node15" class="node">
<title>node11</title>
<ellipse fill="none" stroke="black" cx="228.54" cy="-90" rx="67.69" ry="18"/>
<text text-anchor="middle" x="228.54" y="-86.3" font-family="Times,serif" font-size="14.00">NAME(&#39;parser&#39;)</text>
</g>
<!-- node10&#45;&#45;node11 -->
<g id="edge14" class="edge">
<title>node10&#45;&#45;node11</title>
<path fill="none" stroke="black" d="M228.54,-143.7C228.54,-132.85 228.54,-118.92 228.54,-108.1"/>
</g>
<!-- node15 -->
<g id="node17" class="node">
<title>node15</title>
<ellipse fill="none" stroke="black" cx="485.54" cy="-522" rx="37.89" ry="18"/>
<text text-anchor="middle" x="485.54" y="-518.3" font-family="Times,serif" font-size="14.00">funcdef</text>
</g>
<!-- node14&#45;&#45;node15 -->
<g id="edge16" class="edge">
<title>node14&#45;&#45;node15</title>
<path fill="none" stroke="black" d="M446.89,-576.05C455.03,-564.89 465.62,-550.34 473.66,-539.31"/>
</g>
<!-- node16 -->
<g id="node18" class="node">
<title>node16</title>
<ellipse fill="none" stroke="black" cx="251.54" cy="-450" rx="57.39" ry="18"/>
<text text-anchor="middle" x="251.54" y="-446.3" font-family="Times,serif" font-size="14.00">NAME(&#39;def&#39;)</text>
</g>
<!-- node15&#45;&#45;node16 -->
<g id="edge17" class="edge">
<title>node15&#45;&#45;node16</title>
<path fill="none" stroke="black" d="M454.47,-511.7C412.57,-499.17 337.92,-476.84 291.78,-463.03"/>
</g>
<!-- node17 -->
<g id="node19" class="node">
<title>node17</title>
<ellipse fill="none" stroke="black" cx="375.54" cy="-450" rx="48.99" ry="18"/>
<text text-anchor="middle" x="375.54" y="-446.3" font-family="Times,serif" font-size="14.00">NAME(&#39;f&#39;)</text>
</g>
<!-- node15&#45;&#45;node17 -->
<g id="edge18" class="edge">
<title>node15&#45;&#45;node17</title>
<path fill="none" stroke="black" d="M463.81,-507.17C445.15,-495.3 418.31,-478.22 399.14,-466.01"/>
</g>
<!-- node18 -->
<g id="node20" class="node">
<title>node18</title>
<ellipse fill="none" stroke="black" cx="492.54" cy="-450" rx="50.09" ry="18"/>
<text text-anchor="middle" x="492.54" y="-446.3" font-family="Times,serif" font-size="14.00">parameters</text>
</g>
<!-- node15&#45;&#45;node18 -->
<g id="edge19" class="edge">
<title>node15&#45;&#45;node18</title>
<path fill="none" stroke="black" d="M487.27,-503.7C488.36,-492.85 489.75,-478.92 490.83,-468.1"/>
</g>
<!-- node24 -->
<g id="node21" class="node">
<title>node24</title>
<ellipse fill="none" stroke="black" cx="612.54" cy="-450" rx="51.99" ry="18"/>
<text text-anchor="middle" x="612.54" y="-446.3" font-family="Times,serif" font-size="14.00">COLON(&#39;:&#39;)</text>
</g>
<!-- node15&#45;&#45;node24 -->
<g id="edge20" class="edge">
<title>node15&#45;&#45;node24</title>
<path fill="none" stroke="black" d="M509.43,-507.83C531.27,-495.79 563.53,-478.02 586.13,-465.56"/>
</g>
<!-- node25 -->
<g id="node22" class="node">
<title>node25</title>
<ellipse fill="none" stroke="black" cx="797.54" cy="-450" rx="27.1" ry="18"/>
<text text-anchor="middle" x="797.54" y="-446.3" font-family="Times,serif" font-size="14.00">suite</text>
</g>
<!-- node15&#45;&#45;node25 -->
<g id="edge21" class="edge">
<title>node15&#45;&#45;node25</title>
<path fill="none" stroke="black" d="M518.93,-513.51C581.66,-499.44 715.82,-469.34 771.99,-456.73"/>
</g>
<!-- node19 -->
<g id="node23" class="node">
<title>node19</title>
<ellipse fill="none" stroke="black" cx="323.54" cy="-378" rx="44.69" ry="18"/>
<text text-anchor="middle" x="323.54" y="-374.3" font-family="Times,serif" font-size="14.00">LPAR(&#39;(&#39;)</text>
</g>
<!-- node18&#45;&#45;node19 -->
<g id="edge22" class="edge">
<title>node18&#45;&#45;node19</title>
<path fill="none" stroke="black" d="M460.76,-435.83C429.97,-423.08 383.63,-403.89 353.49,-391.4"/>
</g>
<!-- node20 -->
<g id="node24" class="node">
<title>node20</title>
<ellipse fill="none" stroke="black" cx="433.54" cy="-378" rx="47.39" ry="18"/>
<text text-anchor="middle" x="433.54" y="-374.3" font-family="Times,serif" font-size="14.00">varargslist</text>
</g>
<!-- node18&#45;&#45;node20 -->
<g id="edge23" class="edge">
<title>node18&#45;&#45;node20</title>
<path fill="none" stroke="black" d="M478.56,-432.41C469.16,-421.25 456.81,-406.6 447.43,-395.47"/>
</g>
<!-- node23 -->
<g id="node25" class="node">
<title>node23</title>
<ellipse fill="none" stroke="black" cx="544.54" cy="-378" rx="45.49" ry="18"/>
<text text-anchor="middle" x="544.54" y="-374.3" font-family="Times,serif" font-size="14.00">RPAR(&#39;)&#39;)</text>
</g>
<!-- node18&#45;&#45;node23 -->
<g id="edge24" class="edge">
<title>node18&#45;&#45;node23</title>
<path fill="none" stroke="black" d="M504.87,-432.41C513.16,-421.25 524.04,-406.6 532.31,-395.47"/>
</g>
<!-- node26 -->
<g id="node28" class="node">
<title>node26</title>
<ellipse fill="none" stroke="black" cx="667.54" cy="-378" rx="59.59" ry="18"/>
<text text-anchor="middle" x="667.54" y="-374.3" font-family="Times,serif" font-size="14.00">NEWLINE(&#39;&#39;)</text>
</g>
<!-- node25&#45;&#45;node26 -->
<g id="edge27" class="edge">
<title>node25&#45;&#45;node26</title>
<path fill="none" stroke="black" d="M776.94,-437.91C754.89,-426.03 719.78,-407.13 695.31,-393.95"/>
</g>
<!-- node27 -->
<g id="node29" class="node">
<title>node27</title>
<ellipse fill="none" stroke="black" cx="797.54" cy="-378" rx="51.99" ry="18"/>
<text text-anchor="middle" x="797.54" y="-374.3" font-family="Times,serif" font-size="14.00">INDENT(&#39;&#39;)</text>
</g>
<!-- node25&#45;&#45;node27 -->
<g id="edge28" class="edge">
<title>node25&#45;&#45;node27</title>
<path fill="none" stroke="black" d="M797.54,-431.7C797.54,-420.85 797.54,-406.92 797.54,-396.1"/>
</g>
<!-- node28 -->
<g id="node30" class="node">
<title>node28</title>
<ellipse fill="none" stroke="black" cx="894.54" cy="-378" rx="27" ry="18"/>
<text text-anchor="middle" x="894.54" y="-374.3" font-family="Times,serif" font-size="14.00">stmt</text>
</g>
<!-- node25&#45;&#45;node28 -->
<g id="edge29" class="edge">
<title>node25&#45;&#45;node28</title>
<path fill="none" stroke="black" d="M815.34,-436.16C832.84,-423.53 859.4,-404.36 876.87,-391.76"/>
</g>
<!-- node35 -->
<g id="node31" class="node">
<title>node35</title>
<ellipse fill="none" stroke="black" cx="994.54" cy="-378" rx="54.69" ry="18"/>
<text text-anchor="middle" x="994.54" y="-374.3" font-family="Times,serif" font-size="14.00">DEDENT(&#39;&#39;)</text>
</g>
<!-- node25&#45;&#45;node35 -->
<g id="edge30" class="edge">
<title>node25&#45;&#45;node35</title>
<path fill="none" stroke="black" d="M820.92,-440.7C855.06,-428.56 918.85,-405.89 958.88,-391.67"/>
</g>
<!-- node21 -->
<g id="node26" class="node">
<title>node21</title>
<ellipse fill="none" stroke="black" cx="433.54" cy="-306" rx="29.5" ry="18"/>
<text text-anchor="middle" x="433.54" y="-302.3" font-family="Times,serif" font-size="14.00">fpdef</text>
</g>
<!-- node20&#45;&#45;node21 -->
<g id="edge25" class="edge">
<title>node20&#45;&#45;node21</title>
<path fill="none" stroke="black" d="M433.54,-359.7C433.54,-348.85 433.54,-334.92 433.54,-324.1"/>
</g>
<!-- node22 -->
<g id="node27" class="node">
<title>node22</title>
<ellipse fill="none" stroke="black" cx="433.54" cy="-234" rx="63.89" ry="18"/>
<text text-anchor="middle" x="433.54" y="-230.3" font-family="Times,serif" font-size="14.00">NAME(&#39;main&#39;)</text>
</g>
<!-- node21&#45;&#45;node22 -->
<g id="edge26" class="edge">
<title>node21&#45;&#45;node22</title>
<path fill="none" stroke="black" d="M433.54,-287.7C433.54,-276.85 433.54,-262.92 433.54,-252.1"/>
</g>
<!-- node29 -->
<g id="node32" class="node">
<title>node29</title>
<ellipse fill="none" stroke="black" cx="894.54" cy="-306" rx="54.69" ry="18"/>
<text text-anchor="middle" x="894.54" y="-302.3" font-family="Times,serif" font-size="14.00">simple_stmt</text>
</g>
<!-- node28&#45;&#45;node29 -->
<g id="edge31" class="edge">
<title>node28&#45;&#45;node29</title>
<path fill="none" stroke="black" d="M894.54,-359.7C894.54,-348.85 894.54,-334.92 894.54,-324.1"/>
</g>
<!-- node30 -->
<g id="node33" class="node">
<title>node30</title>
<ellipse fill="none" stroke="black" cx="830.54" cy="-234" rx="50.09" ry="18"/>
<text text-anchor="middle" x="830.54" y="-230.3" font-family="Times,serif" font-size="14.00">small_stmt</text>
</g>
<!-- node29&#45;&#45;node30 -->
<g id="edge32" class="edge">
<title>node29&#45;&#45;node30</title>
<path fill="none" stroke="black" d="M879.38,-288.41C869.17,-277.25 855.78,-262.6 845.6,-251.47"/>
</g>
<!-- node34 -->
<g id="node34" class="node">
<title>node34</title>
<ellipse fill="none" stroke="black" cx="958.54" cy="-234" rx="59.59" ry="18"/>
<text text-anchor="middle" x="958.54" y="-230.3" font-family="Times,serif" font-size="14.00">NEWLINE(&#39;&#39;)</text>
</g>
<!-- node29&#45;&#45;node34 -->
<g id="edge33" class="edge">
<title>node29&#45;&#45;node34</title>
<path fill="none" stroke="black" d="M909.71,-288.41C919.91,-277.25 933.31,-262.6 943.49,-251.47"/>
</g>
<!-- node31 -->
<g id="node35" class="node">
<title>node31</title>
<ellipse fill="none" stroke="black" cx="830.54" cy="-162" rx="46.29" ry="18"/>
<text text-anchor="middle" x="830.54" y="-158.3" font-family="Times,serif" font-size="14.00">flow_stmt</text>
</g>
<!-- node30&#45;&#45;node31 -->
<g id="edge34" class="edge">
<title>node30&#45;&#45;node31</title>
<path fill="none" stroke="black" d="M830.54,-215.7C830.54,-204.85 830.54,-190.92 830.54,-180.1"/>
</g>
<!-- node32 -->
<g id="node36" class="node">
<title>node32</title>
<ellipse fill="none" stroke="black" cx="830.54" cy="-90" rx="51.99" ry="18"/>
<text text-anchor="middle" x="830.54" y="-86.3" font-family="Times,serif" font-size="14.00">return_stmt</text>
</g>
<!-- node31&#45;&#45;node32 -->
<g id="edge35" class="edge">
<title>node31&#45;&#45;node32</title>
<path fill="none" stroke="black" d="M830.54,-143.7C830.54,-132.85 830.54,-118.92 830.54,-108.1"/>
</g>
<!-- node33 -->
<g id="node37" class="node">
<title>node33</title>
<ellipse fill="none" stroke="black" cx="830.54" cy="-18" rx="66.89" ry="18"/>
<text text-anchor="middle" x="830.54" y="-14.3" font-family="Times,serif" font-size="14.00">NAME(&#39;return&#39;)</text>
</g>
<!-- node32&#45;&#45;node33 -->
<g id="edge36" class="edge">
<title>node32&#45;&#45;node33</title>
<path fill="none" stroke="black" d="M830.54,-71.7C830.54,-60.85 830.54,-46.92 830.54,-36.1"/>
</g>
</g>
</svg>
